HIERARCHY
ROOT Hips
{
	OFFSET 0.00000 0.00000 0.00000
	CHANNELS 6 Xposition Yposition Zposition Zrotation Yrotation Xrotation 
	JOINT LHipJoint
	{
		OFFSET 0 0 0
		CHANNELS 3 Zrotation Yrotation Xrotation
		JOINT LeftUpLeg
		{
			OFFSET 1.53139 -1.83434 0.76626
			CHANNELS 3 Zrotation Yrotation Xrotation
			JOINT LeftLeg
			{
				OFFSET 2.56112 -7.03663 0.00000
				CHANNELS 3 Zrotation Yrotation Xrotation
				JOINT LeftFoot
				{
					OFFSET 2.59983 -7.14299 0.00000
					CHANNELS 3 Zrotation Yrotation Xrotation
					JOINT LeftToeBase
					{
						OFFSET 0.13742 -0.37757 2.00054
						CHANNELS 3 Zrotation Yrotation Xrotation
						End Site
						{
							OFFSET 0.00000 -0.00000 1.02897
						}
					}
				}
			}
		}
	}
	JOINT RHipJoint
	{
		OFFSET 0 0 0
		CHANNELS 3 Zrotation Yrotation Xrotation
		JOINT RightUpLeg
		{
			OFFSET -1.40122 -1.83435 0.76627
			CHANNELS 3 Zrotation Yrotation Xrotation
			JOINT RightLeg
			{
				OFFSET -2.54052 -6.98003 0.00000
				CHANNELS 3 Zrotation Yrotation Xrotation
				JOINT RightFoot
				{
					OFFSET -2.63179 -7.23079 0.00000
					CHANNELS 3 Zrotation Yrotation Xrotation
					JOINT RightToeBase
					{
						OFFSET -0.24131 -0.66299 2.03908
						CHANNELS 3 Zrotation Yrotation Xrotation
						End Site
						{
							OFFSET -0.00000 -0.00000 1.07391
						}
					}
				}
			}
		}
	}
	JOINT LowerBack
	{
		OFFSET 0 0 0
		CHANNELS 3 Zrotation Yrotation Xrotation
		JOINT Spine
		{
			OFFSET 0.01174 2.10302 -0.29778
			CHANNELS 3 Zrotation Yrotation Xrotation
			JOINT Spine1
			{
				OFFSET 0.00772 2.13227 -0.01247
				CHANNELS 3 Zrotation Yrotation Xrotation
				JOINT Neck
				{
					OFFSET 0 0 0
					CHANNELS 3 Zrotation Yrotation Xrotation
					JOINT Neck1
					{
						OFFSET -0.09219 1.60848 0.31481
						CHANNELS 3 Zrotation Yrotation Xrotation
						JOINT Head
						{
							OFFSET 0.13974 1.65456 -0.31134
							CHANNELS 3 Zrotation Yrotation Xrotation
							End Site
							{
								OFFSET 0.04742 1.69515 -0.14578
							}
						}
					}
				}
				JOINT LeftShoulder
				{
					OFFSET 0 0 0
					CHANNELS 3 Zrotation Yrotation Xrotation
					JOINT LeftArm
					{
						OFFSET 3.24909 1.02882 -0.23993
						CHANNELS 3 Zrotation Yrotation Xrotation
						JOINT LeftForeArm
						{
							OFFSET 5.32955 -0.00000 -0.00000
							CHANNELS 3 Zrotation Yrotation Xrotation
							JOINT LeftHand
							{
								OFFSET 3.69232 -0.00000 -0.00000
								CHANNELS 3 Zrotation Yrotation Xrotation
								JOINT LeftFingerBase
								{
									OFFSET 0 0 0
									CHANNELS 3 Zrotation Yrotation Xrotation
									JOINT LeftHandIndex1
									{
										OFFSET 0.53660 -0.00000 -0.00000
										CHANNELS 3 Zrotation Yrotation Xrotation
										End Site
										{
											OFFSET 0.43262 -0.00000 -0.00000
										}
									}
								}
								JOINT LThumb
								{
									OFFSET 0 0 0
									CHANNELS 3 Zrotation Yrotation Xrotation
									End Site
									{
										OFFSET 0.43922 -0.00000 0.43922
									}
								}
							}
						}
					}
				}
				JOINT RightShoulder
				{
					OFFSET 0 0 0
					CHANNELS 3 Zrotation Yrotation Xrotation
					JOINT RightArm
					{
						OFFSET -3.21387 0.93002 -0.34594
						CHANNELS 3 Zrotation Yrotation Xrotation
						JOINT RightForeArm
						{
							OFFSET -5.23431 -0.00000 0.00000
							CHANNELS 3 Zrotation Yrotation Xrotation
							JOINT RightHand
							{
								OFFSET -3.55301 -0.00000 -0.00000
								CHANNELS 3 Zrotation Yrotation Xrotation
								JOINT RightFingerBase
								{
									OFFSET 0 0 0
									CHANNELS 3 Zrotation Yrotation Xrotation
									JOINT RightHandIndex1
									{
										OFFSET -0.77252 -0.00000 -0.00000
										CHANNELS 3 Zrotation Yrotation Xrotation
										End Site
										{
											OFFSET -0.62283 -0.00000 -0.00000
										}
									}
								}
								JOINT RThumb
								{
									OFFSET 0 0 0
									CHANNELS 3 Zrotation Yrotation Xrotation
									End Site
									{
										OFFSET -0.63234 -0.00000 0.63234
									}
								}
							}
						}
					}
				}
			}
		}
	}
}
MOTION
Frames: 6
Frame Time: .0083333
-0.2257 18.2951 1.9838 181.7500 23.7840 -178.1140 0.0000 0.0000 0.0000 -22.1945 1.3686 -1.6365 0.2511 3.2244 8.9043 -0.3011 10.2115 -7.2484 0.0595 1.5743 4.3306 0.0000 0.0000 0.0000 19.3699 -5.0573 -12.9846 -1.5124 -7.7666 22.0075 0.2961 -15.0115 -17.7941 -0.1543 -2.5311 6.9759 -1.9198 0.2526 10.9553 0.6212 0.1813 0.1998 1.7036 0.1741 -5.9499 -12.6993 -9.4417 -16.7533 10.3896 -11.8643 32.8223 4.5197 -4.6318 15.9837 -0.0000 -0.0000 0.0000 -87.8488 7.8192 30.1489 17.3981 -27.3797 -4.2688 -0.0000 -0.0000 5.4416 20.9150 21.8985 8.1119 -7.1250 0.0000 -0.0000 -8.2168 53.0775 -1.6416 -0.0000 -0.0000 0.0000 90.2572 -2.7345 25.5106 -24.2780 35.4568 -7.8672 0.0000 0.0000 2.7013 -16.0565 9.3477 -2.6765 7.1250 -0.0000 -0.0000 7.7900 -20.3020 4.6458
-0.2485 18.3002 1.9899 181.7700 24.8958 -178.0460 0.0000 0.0000 0.0000 -22.3070 1.6950 -1.6191 0.2366 3.1303 8.6416 -0.3567 10.9576 -7.3273 0.0648 1.6427 4.5192 0.0000 0.0000 0.0000 19.4067 -6.0537 -13.6962 -1.5871 -7.9472 22.5537 0.3971 -16.0586 -18.2910 -0.2146 -2.9820 8.2287 -1.9692 0.2731 10.9318 0.5981 0.1978 0.1401 1.7049 0.1830 -6.0007 -12.6128 -9.5747 -17.0532 10.0698 -11.9677 33.3809 4.3618 -4.6831 16.3143 -0.0000 -0.0000 0.0000 -87.7494 7.8947 30.3155 17.3193 -27.2767 -4.2326 -0.0000 -0.0000 5.8907 20.5544 21.9940 7.9937 -7.1250 0.0000 -0.0000 -8.6158 53.1095 -1.7290 -0.0000 -0.0000 0.0000 90.2374 -2.7944 25.6190 -24.2628 35.4410 -7.8584 0.0000 0.0000 2.7073 -16.0134 9.4134 -2.6875 7.1250 -0.0000 -0.0000 7.8195 -20.2368 4.6753
-0.2688 18.2999 1.9955 181.7900 26.1730 -178.0630 0.0000 0.0000 0.0000 -22.4081 2.2530 -1.4615 0.2109 2.9566 8.1580 -0.4174 11.6981 -7.3001 0.0672 1.6728 4.6024 0.0000 0.0000 0.0000 19.4109 -6.8694 -14.3001 -1.6851 -8.1769 23.2526 0.4376 -16.6748 -18.8853 -0.3186 -3.6284 10.0334 -2.0411 0.3498 10.9243 0.5812 0.2889 0.1369 1.7131 0.2293 -6.0042 -12.7746 -9.6093 -16.9261 10.1643 -12.0264 33.3744 4.4210 -4.7247 16.3148 -0.0000 -0.0000 0.0000 -87.7163 7.9153 30.0690 17.2685 -27.2103 -4.2094 -0.0000 -0.0000 7.0352 18.8683 22.7063 7.5151 -7.1250 0.0000 -0.0000 -10.5928 53.5244 -2.2402 -0.0000 -0.0000 0.0000 90.2115 -2.8766 25.6568 -24.3356 35.5171 -7.9007 0.0000 0.0000 2.7932 -15.7673 9.3830 -2.6356 7.1250 -0.0000 -0.0000 7.9959 -20.2816 4.7746
-0.2886 18.2990 1.9999 181.6830 27.4874 -178.1470 0.0000 0.0000 0.0000 -22.6265 2.8641 -1.2840 0.1851 2.7709 7.6416 -0.4823 12.4563 -7.3209 0.0922 1.9582 5.3900 0.0000 0.0000 0.0000 19.2783 -7.6756 -14.9502 -1.7967 -8.4291 24.0252 0.4834 -17.1469 -19.1700 -0.3545 -3.8252 10.5854 -2.2028 0.4285 10.8506 0.4985 0.3703 0.1785 1.7047 0.2715 -5.9231 -12.8212 -9.5661 -16.7029 10.3296 -12.0436 33.1286 4.4899 -4.7370 16.1601 0.0000 0.0000 0.0000 -87.5520 7.8766 30.0635 17.2225 -27.1501 -4.1884 -0.0000 -0.0000 7.6875 17.5983 23.0907 7.0910 -7.1250 0.0000 -0.0000 -12.0325 53.6758 -2.5960 0.0000 0.0000 0.0000 90.2155 -2.9170 25.7825 -24.3545 35.5369 -7.9117 0.0000 0.0000 2.8528 -15.6870 9.6996 -2.7090 7.1250 -0.0000 -0.0000 8.0469 -19.9611 4.8642
-0.3083 18.3029 2.0028 181.5640 28.7527 -178.1650 0.0000 0.0000 0.0000 -22.8587 3.4103 -1.1141 0.1569 2.5524 7.0349 -0.5481 13.1827 -7.3355 0.1246 2.2755 6.2676 0.0000 0.0000 0.0000 19.1426 -8.4804 -15.7179 -1.9240 -8.7058 24.8794 0.5187 -17.4493 -19.2867 -0.3698 -3.9060 10.8123 -2.3174 0.4958 10.7793 0.3849 0.4375 0.1384 1.6398 0.3055 -5.9285 -12.7060 -9.5659 -16.7108 10.2446 -12.0657 33.2446 4.4326 -4.7429 16.2045 -0.0000 -0.0000 0.0000 -87.3260 7.9977 30.3505 17.2413 -27.1748 -4.1969 -0.0000 -0.0000 7.4592 17.7081 23.0410 7.1233 -7.1250 0.0000 -0.0000 -11.9007 53.6464 -2.5584 -0.0000 -0.0000 0.0000 90.2555 -3.0166 25.8422 -24.3208 35.5017 -7.8921 0.0000 0.0000 2.8946 -15.6973 10.1001 -2.8215 7.1250 -0.0000 -0.0000 8.0327 -19.5496 4.9300
-0.3261 18.3073 2.0081 181.5960 30.0736 -178.0810 0.0000 0.0000 0.0000 -22.9370 4.0530 -0.8557 0.1202 2.2350 6.1557 -0.6161 13.8797 -7.2250 0.1482 2.4808 6.8363 0.0000 0.0000 0.0000 19.1460 -8.9227 -16.3450 -2.0664 -9.0030 25.8047 0.5099 -17.5933 -19.6703 -0.4867 -4.4733 12.4120 -2.3674 0.5848 10.7630 0.3721 0.5442 0.0382 1.6377 0.3596 -6.0306 -12.9037 -9.6129 -16.5419 10.3836 -12.1519 33.1988 4.5110 -4.7968 16.1880 0.0000 0.0000 0.0000 -87.2785 8.2428 30.4109 17.2922 -27.2414 -4.2202 -0.0000 -0.0000 7.3160 18.4429 22.8904 7.3909 -7.1250 0.0000 -0.0000 -11.0973 53.6313 -2.3781 0.0000 0.0000 0.0000 90.2451 -3.2463 25.8236 -24.3485 35.5306 -7.9082 0.0000 0.0000 2.9207 -15.5419 10.2661 -2.8376 7.1250 -0.0000 -0.0000 8.1402 -19.3887 5.0269
